<svg id="title" xmlns="http://www.w3.org/2000/svg" viewBox="0 0 789.89 1158.19">
  <defs>
    <style>
      .cls-1 {
        fill: #b73737;
      }
    </style>
  </defs>
  <title>IconCrown</title>
  <g>
    <ellipse class="cls-1" cx="408.37" cy="838.22" rx="35.33" ry="83.92"/>
    <ellipse class="cls-1" cx="408.37" cy="838.22" rx="35.33" ry="83.92"/>
    <ellipse class="cls-1" cx="408.37" cy="838.22" rx="35.33" ry="83.92"/>
    <path class="cls-1" d="M1152.31,638.8A1120.94,1120.94,0,0,0,1000,878.48C969,801.34,907.66,679,788.28,567A857.67,857.67,0,0,0,605.05,435.74V1579.1l789.89-3.95V420.9A1121.42,1121.42,0,0,0,1152.31,638.8ZM1014.38,1399c-135.27,0-244.94-153.13-244.94-153.13s108.72-121.74,244-121.74,245.93,121.74,245.93,121.74S1149.68,1399,1014.38,1399Z" transform="translate(-605.05 -420.9)"/>
  </g>
</svg>
