<svg id="title" xmlns="http://www.w3.org/2000/svg" viewBox="0 0 1926.49 1017.1">
  <defs>
    <style>
      .cls-1 {
        fill: #b73737;
      }
    </style>
  </defs>
  <title>Title</title>
  <g>
    <path class="cls-1" d="M261.81,943.9l6.26,78.2a10.86,10.86,0,0,0,11.85,9.95l21.11-2a10.86,10.86,0,0,0,9.84-10.67l1.58-120.11a10.86,10.86,0,0,0-10.86-11H194.51a10.86,10.86,0,0,0-10.86,10.86V1323.4a10.86,10.86,0,0,0,11.2,10.86L301.9,1331a10.86,10.86,0,0,0,10.53-11l-1.68-119a10.86,10.86,0,0,0-11.29-10.7l-28.25,1.13A10.86,10.86,0,0,0,260.79,1202l-1.52,71.57a10.86,10.86,0,0,1-11.66,10.6h0a10.86,10.86,0,0,1-10.06-10.76l-2.25-328.56a10.86,10.86,0,0,1,10.86-10.94H251A10.86,10.86,0,0,1,261.81,943.9Z" transform="translate(-36.75 -491.45)"/>
    <path class="cls-1" d="M359.52,895.29,348.05,902a18.2,18.2,0,0,0-8.95,16l7.9,400.4a18.2,18.2,0,0,0,18.19,17.84l92.46,0a18.2,18.2,0,0,0,18.2-18.49L469.32,909A18.2,18.2,0,0,0,441,894.16l-15.2,10.17a18.2,18.2,0,0,0-8.07,15.59l9.1,356.06a18.2,18.2,0,0,1-17,18.62l-.37,0a18.2,18.2,0,0,1-19.4-18L387,910.81A18.2,18.2,0,0,0,359.52,895.29Z" transform="translate(-36.75 -491.45)"/>
    <path class="cls-1" d="M511.86,892.23l19.61-9.56a15.32,15.32,0,0,1,22,13.77v379.25A15.32,15.32,0,0,0,568.81,1291h0a15.32,15.32,0,0,0,15.32-15.32v-64.32a15.32,15.32,0,0,1,8.92-13.92l14.7-6.76a15.32,15.32,0,0,1,21.71,13.92v114.34a15.32,15.32,0,0,1-15.32,15.32H518.57a15.32,15.32,0,0,1-15.32-15.32V906A15.32,15.32,0,0,1,511.86,892.23Z" transform="translate(-36.75 -491.45)"/>
    <path class="cls-1" d="M633.67,888.53l137.27,2.21a20.61,20.61,0,0,1,20.28,20.61h0A20.61,20.61,0,0,1,770.61,932H749.48a20.61,20.61,0,0,0-20.61,20.75l2.28,341.47a20.61,20.61,0,0,1-1.57,8l-7.89,19.07A20.61,20.61,0,0,1,702.82,1334l-11,.09A20.61,20.61,0,0,1,671,1313.73L666.55,949a20.61,20.61,0,0,0-25.29-19.82L638,930a20.61,20.61,0,0,1-15.88-2.77l-.18-.12a20.61,20.61,0,0,1-8.41-23.67l.21-.64A20.61,20.61,0,0,1,633.67,888.53Z" transform="translate(-36.75 -491.45)"/>
    <path class="cls-1" d="M791.22,1190.25v96.87a5.83,5.83,0,0,0,5.83,5.83h53.83a5.83,5.83,0,0,0,5.83-5.83v-96.87a5.83,5.83,0,0,0-5.83-5.83H797.06A5.83,5.83,0,0,0,791.22,1190.25Zm33.65,78.48h0a5.83,5.83,0,0,1-5.83-5.83v-51.13a5.83,5.83,0,0,1,5.83-5.83h0a5.83,5.83,0,0,1,5.83,5.83v51.13A5.83,5.83,0,0,1,824.88,1268.73Z" transform="translate(-36.75 -491.45)"/>
    <path class="cls-1" d="M865.69,1192.77v91.83A8.35,8.35,0,0,0,874,1293h10.21a8.35,8.35,0,0,0,8.35-8.35V1247a8.35,8.35,0,0,1,8.35-8.35H921a8.35,8.35,0,0,0,8.35-8.35v-1.68a8.35,8.35,0,0,0-8.35-8.35H896.49a8.35,8.35,0,0,1-8.3-9.22h0a8.35,8.35,0,0,1,8.68-7.47l23.79,1.06a8.35,8.35,0,0,0,8.72-8.34v-3.55a8.35,8.35,0,0,0-8.35-8.35H874A8.35,8.35,0,0,0,865.69,1192.77Z" transform="translate(-36.75 -491.45)"/>
    <path class="cls-1" d="M964.5,1184.42H1027a10,10,0,0,1,10,10v1.5a10,10,0,0,1-10,10h-12.15a10,10,0,0,0-10,10.12l.69,66.76a10,10,0,0,1-10,10.12h0a10,10,0,0,1-10-9.6l-2.8-67.8a10,10,0,0,0-10-9.6H964.5a10,10,0,0,1-10-10v-1.5A10,10,0,0,1,964.5,1184.42Z" transform="translate(-36.75 -491.45)"/>
    <path class="cls-1" d="M1044.18,1193.84v89.7a9.42,9.42,0,0,0,9.42,9.42h5.47a9.42,9.42,0,0,0,9.39-10.19l-2.8-33.88a9.42,9.42,0,0,1,9.39-10.19h7.26a9.42,9.42,0,0,1,9.42,9.42v35.43a9.42,9.42,0,0,0,9.42,9.42h0a9.42,9.42,0,0,0,9.42-9.42v-89.7a9.42,9.42,0,0,0-9.42-9.42H1100a9.42,9.42,0,0,0-9.41,9.16l-.4,14.31a9.42,9.42,0,0,1-9.07,9.15l-5.63.21a9.42,9.42,0,0,1-9.77-9.41v-14a9.42,9.42,0,0,0-9.42-9.42h-2.69A9.42,9.42,0,0,0,1044.18,1193.84Z" transform="translate(-36.75 -491.45)"/>
    <path class="cls-1" d="M1178.64,1184.42h-56.12a6.37,6.37,0,0,0-6.36,6.58l3.17,95.8a6.37,6.37,0,0,0,6.36,6.16h53a6.37,6.37,0,0,0,6.37-6.37v-10.71a6.37,6.37,0,0,0-6.24-6.37l-33.47-.66a6.37,6.37,0,0,1-6.24-6.15l-.46-13.4a6.37,6.37,0,0,1,6.36-6.59h31.9a6.37,6.37,0,0,0,6.18-7.91l-3.12-12.49a6.37,6.37,0,0,0-6-4.82l-29-.62a6.37,6.37,0,0,1-6-8.12h0a6.37,6.37,0,0,1,6.12-4.62h33.68a6.37,6.37,0,0,0,6.37-6.37v-7A6.37,6.37,0,0,0,1178.64,1184.42Z" transform="translate(-36.75 -491.45)"/>
    <path class="cls-1" d="M1226.59,914.85v398.7a11.48,11.48,0,0,0,11.48,11.48h95.49a11.48,11.48,0,0,0,11.48-11.48V1201.66a11.48,11.48,0,0,0-15.91-10.6l-20.1,8.4a11.48,11.48,0,0,0-7.06,10.46l-.83,71.67a11.48,11.48,0,0,1-11.48,11.35h0a11.48,11.48,0,0,1-11.48-11.71l7.34-374.45a11.48,11.48,0,0,0-14.06-11.42l-36,8.28A11.48,11.48,0,0,0,1226.59,914.85Z" transform="translate(-36.75 -491.45)"/>
    <path class="cls-1" d="M1481.21,1323.35l-6.06-428.77a7.86,7.86,0,0,0-7.86-7.75h-82.94a7.86,7.86,0,0,0-7.86,7.86v154.1a7.86,7.86,0,0,1-7.86,7.86H1352.9a7.86,7.86,0,0,0-7.86,7.86v25.17a7.86,7.86,0,0,0,7.86,7.86h11.54a7.86,7.86,0,0,1,7.86,7.86v218.05a7.86,7.86,0,0,0,7.86,7.86h32.51a7.86,7.86,0,0,0,7.86-7.86V1104.9a7.86,7.86,0,0,1,8.39-7.84h0a7.86,7.86,0,0,1,7.33,7.84v218.56a7.86,7.86,0,0,0,7.86,7.86h29.24A7.86,7.86,0,0,0,1481.21,1323.35Zm-73.26-274.55V948.17a7.86,7.86,0,0,1,7.86-7.86h14.68a7.86,7.86,0,0,1,7.86,7.86V1048.8a7.86,7.86,0,0,1-7.86,7.86h-14.68A7.86,7.86,0,0,1,1407.95,1048.8Z" transform="translate(-36.75 -491.45)"/>
    <path class="cls-1" d="M1501.24,896.33v424.46a10.53,10.53,0,0,0,10.53,10.53h27.15a10.53,10.53,0,0,0,10.53-10.53v-383a10.53,10.53,0,0,1,11.06-10.52h0a10.53,10.53,0,0,1,10,10.41l4,383.26a10.53,10.53,0,0,0,10.53,10.43h24.12a10.53,10.53,0,0,0,10.53-10.53V939.3a10.53,10.53,0,0,1,10.53-10.53h.94a10.53,10.53,0,0,1,10.53,10.53V1326a10.53,10.53,0,0,0,10.53,10.53h23a10.53,10.53,0,0,0,10.53-10.53V897.37a10.53,10.53,0,0,0-10.53-10.53h-63.07a10.53,10.53,0,0,0-5.42,1.5l-7.1,4.26a10.53,10.53,0,0,1-11.81-.65l-13-9.91a10.53,10.53,0,0,0-7.48-2.1l-56.64,5.92A10.53,10.53,0,0,0,1501.24,896.33Z" transform="translate(-36.75 -491.45)"/>
    <path class="cls-1" d="M1802.47,1064.21l18.82-25.09a8.91,8.91,0,0,0,1.78-5.34V896.18a8.91,8.91,0,0,0-9.33-8.9l-92.25,4.39a8.91,8.91,0,0,0-8.49,8.9V1050a8.91,8.91,0,0,1-6.4,8.55l-5,1.48a8.91,8.91,0,0,0-6.4,8.55v26.36a8.91,8.91,0,0,0,8.91,8.91h0a8.91,8.91,0,0,1,8.91,8.91v209.67a8.91,8.91,0,0,0,8.91,8.91h99.59a8.91,8.91,0,0,0,8.91-8.91v-215a8.91,8.91,0,0,0-2.51-6.2l-24.69-25.49A8.91,8.91,0,0,1,1802.47,1064.21Zm-49.11-140.68h25.16a8.91,8.91,0,0,1,8.91,8.91v93.29a8.91,8.91,0,0,1-8.91,8.91h-25.16a8.91,8.91,0,0,1-8.91-8.91V932.44A8.91,8.91,0,0,1,1753.36,923.53Zm-8.91,365.33V1144.2a8.91,8.91,0,0,1,8.91-8.91h25.39a8.91,8.91,0,0,1,8.91,8.68l3.74,144.66a8.91,8.91,0,0,1-8.91,9.14h-29.12A8.91,8.91,0,0,1,1744.45,1288.86Z" transform="translate(-36.75 -491.45)"/>
    <path class="cls-1" d="M803.28,1318.1h371.56a12.06,12.06,0,0,1,11.89,10h0a12.06,12.06,0,0,1-11.89,14.11H803.28a12.06,12.06,0,0,1-12.06-12.06h0A12.06,12.06,0,0,1,803.28,1318.1Z" transform="translate(-36.75 -491.45)"/>
    <polygon class="cls-1" points="948 875.53 941.65 959.33 897.21 959.33 900.38 982.82 937.2 982.82 941.01 1017.1 966.41 1017.1 962.6 979.01 1003.86 979.01 1003.86 956.79 958.99 958.06 958.99 872.99 948 875.53"/>
    <polygon class="cls-1" points="1045.76 909.81 1063.53 1002.5 1093.37 999.32 1055.28 903.47 1045.76 909.81"/>
    <polygon class="cls-1" points="852.77 907.27 843.25 1002.5 810.24 1002.5 843.25 907.27 852.77 907.27"/>
    <circle class="cls-1" cx="1219.54" cy="912.83" r="25.23"/>
    <circle class="cls-1" cx="682.09" cy="912.83" r="25.23"/>
    <circle class="cls-1" cx="1401.61" cy="342.72" r="25.23"/>
    <circle class="cls-1" cx="952.31" cy="25.23" r="25.23"/>
    <circle class="cls-1" cx="504.38" cy="342.72" r="25.23"/>
    <path class="cls-1" d="M801.8,1136.14h375.83a10.58,10.58,0,0,1,10.49,9.19h0a10.58,10.58,0,0,1-10.49,12H801.8a10.58,10.58,0,0,1-10.58-10.58h0A10.58,10.58,0,0,1,801.8,1136.14Z" transform="translate(-36.75 -491.45)"/>
    <ellipse class="cls-1" cx="952.97" cy="503.6" rx="12.59" ry="29.91"/>
    <ellipse class="cls-1" cx="952.97" cy="503.6" rx="12.59" ry="29.91"/>
    <ellipse class="cls-1" cx="952.97" cy="503.6" rx="12.59" ry="29.91"/>
    <path class="cls-1" d="M1039.22,774a399.47,399.47,0,0,0-54.28,85.42,310.85,310.85,0,0,0-75.45-111,305.65,305.65,0,0,0-65.3-46.78v407.46l281.5-1.41V696.33A399.65,399.65,0,0,0,1039.22,774ZM990.06,1044.9c-48.21,0-87.29-54.57-87.29-54.57s38.75-43.39,87-43.39,87.64,43.39,87.64,43.39S1038.28,1044.9,990.06,1044.9Z" transform="translate(-36.75 -491.45)"/>
    <polygon class="cls-1" points="938.39 183.34 938.39 284.08 966.18 284.08 966.18 183.34 1014.12 183.34 1014.12 159.72 966.18 159.72 965.49 144.43 1017.59 144.43 1017.59 118.73 964.79 118.73 963.4 83.99 938.39 83.99 938.39 129.15 877.95 127.06 883.5 147.21 937.7 147.21 937.7 159.02 884.2 157.63 888.37 184.03 938.39 183.34"/>
    <polygon class="cls-1" points="1141.16 25.23 1088.93 144.52 1099.75 149.78 1160.87 39.36 1141.16 25.23"/>
    <polygon class="cls-1" points="1346.6 169.24 1259.48 266.02 1268.09 274.41 1360.87 188.85 1346.6 169.24"/>
    <polygon class="cls-1" points="1214.77 126.78 1256.84 83.99 1274.58 105.38 1235.15 144.52 1266.7 169.24 1255.52 190.53 1225.94 169.24 1160.87 239.83 1156.27 210.91 1201.63 155.04 1177.96 130.06 1185.85 107.71 1214.77 126.78"/>
    <polyline class="cls-1" points="660.07 268.62 564.91 185.71 546.97 202.03 652.67 278.09"/>
    <polyline class="cls-1" points="817.21 130.12 752.99 21.47 730.82 31.32 807.2 136.78 817.21 130.12"/>
    <polygon class="cls-1" points="661.68 151.32 628.66 101.23 653.29 88.36 683.3 135.12 714.08 109.45 732.56 124.84 705.54 149.29 760.93 227.71 731.69 226.15 686.56 170.1 657.18 188 636.98 175.61 661.68 151.32"/>
    <polygon class="cls-1" points="1805.19 582.58 1849.63 582.58 1849.63 553.76 1867.04 543.19 1867.04 582.58 1887.46 582.58 1884.46 558.56 1906.08 550.15 1906.08 585.59 1926.49 585.59 1926.49 606 1901.87 606 1903.67 643.84 1880.85 643.84 1879.65 603.6 1865.84 603.6 1869.44 643.84 1849.63 643.84 1847.22 604.8 1805.19 606.6 1805.19 582.58"/>
    <polygon class="cls-1" points="121.42 604.15 76.98 604.37 77.12 633.19 59.76 643.84 59.56 604.45 39.15 604.55 42.27 628.55 20.69 637.07 20.52 601.64 0.1 601.74 0 581.32 24.62 581.2 22.64 543.38 45.45 543.26 46.85 583.49 60.66 583.43 56.87 543.21 76.68 543.11 79.27 582.13 121.3 580.13 121.42 604.15"/>
  </g>
</svg>
